<svg id="Layer_1" data-name="Layer 1" xmlns="http://www.w3.org/2000/svg" viewBox="0 0 400 140"><defs><style>.cls-1{fill:#d83b0f;}.cls-2,.cls-6{fill:#fff;}.cls-3{fill:#e5e5e5;}.cls-10,.cls-4,.cls-9{fill:none;}.cls-4,.cls-6{stroke:#555;}.cls-10,.cls-4,.cls-6,.cls-9{stroke-miterlimit:10;stroke-width:2px;}.cls-5{fill:#555;}.cls-7{fill:#da4026;}.cls-8{fill:#868787;}.cls-9{stroke:#868787;}.cls-10{stroke:#d83b0f;}</style></defs><title>Office_2016_for_Mac_400x140</title><rect class="cls-1" x="55.5" y="49" width="289" height="30"/><path class="cls-2" d="M317.17,36.58H242.48a5.32,5.32,0,0,0-5.34,5.25v46A5.32,5.32,0,0,0,242.48,93h74.69a5.31,5.31,0,0,0,5.33-5.25V41.83A5.31,5.31,0,0,0,317.17,36.58Z"/><path class="cls-3" d="M322.5,41.4V55.86H237.14V41.4a4.79,4.79,0,0,1,4.74-4.82h75.88A4.79,4.79,0,0,1,322.5,41.4Z"/><path class="cls-4" d="M317.17,36.58H242.48a5.32,5.32,0,0,0-5.34,5.25v46A5.32,5.32,0,0,0,242.48,93h74.69a5.31,5.31,0,0,0,5.33-5.25V41.83A5.31,5.31,0,0,0,317.17,36.58Z"/><polygon class="cls-5" points="297.72 102.67 261.92 102.67 257.79 105.42 301.85 105.42 297.72 102.67"/><polygon class="cls-5" points="281.88 104.04 277.75 104.04 278.44 93.03 281.2 93.03 281.88 104.04"/><polygon class="cls-5" points="174.77 98.37 149.69 122.17 142.53 122.17 153.28 91.05 165.12 85.56 174.77 98.37"/><polygon class="cls-5" points="196.26 98.37 221.34 122.17 228.5 122.17 217.75 91.05 205.91 85.56 196.26 98.37"/><polygon class="cls-5" points="192.68 124 178.35 124 181.93 113.02 189.1 113.02 192.68 124"/><path class="cls-2" d="M185.51,16.81s-23.65,31.31-23.28,54.92A72,72,0,0,0,174.77,112h21.49A72,72,0,0,0,208.8,71.73"/><path class="cls-3" d="M208.8,71.81a71.61,71.61,0,0,1-11.82,39l-.27.39H186l-.27-.39a71.8,71.8,0,0,1-11.82-39c-.12-7.52,2.28-15.89,5.57-23.79a150.16,150.16,0,0,1,11.9-22.28A151.14,151.14,0,0,1,203.23,48C206.52,55.92,208.92,64.29,208.8,71.81Z"/><path class="cls-1" d="M202.33,47.12H168.7a161.54,161.54,0,0,1,16.12-28.58l.69-1,.74,1A162.34,162.34,0,0,1,202.33,47.12Z"/><path class="cls-4" d="M185.51,16s-23.65,31.3-23.28,54.92a72,72,0,0,0,12.54,40.27h21.49A72,72,0,0,0,208.8,70.92C209.17,47.3,185.51,16,185.51,16Z"/><ellipse class="cls-6" cx="185.51" cy="61.76" rx="8.96" ry="9.15"/><rect class="cls-5" x="176.56" y="111.19" width="17.91" height="3.66"/><g id="office"><polygon class="cls-7" points="291.47 78.57 291.47 51.45 282.05 48.96 264.5 55.2 264.5 55.21 264.5 74.8 270.49 72.47 270.49 56.53 282.48 53.77 282.48 77.2 264.5 74.8 282.05 80.93 291.47 78.57"/></g><g id="ICONS-64x"><path class="cls-6" d="M76.5,38V92h62V38Z"/><path class="cls-6" d="M114,34a7.89,7.89,0,0,0-6.5,3,7.89,7.89,0,0,0-6.5-3H83.5V85H101a6.87,6.87,0,0,1,5,2.43c.65.73,1.5,1.57,1.5,1.57s.85-.84,1.5-1.57A6.87,6.87,0,0,1,114,85h17.5V34Z"/><rect class="cls-3" x="84.5" y="35" width="8" height="49"/><rect class="cls-3" x="122.5" y="35" width="8" height="49"/><path class="cls-1" d="M108.5,37.34V86.5l-.25.27-.75.8c-.24-.25-.51-.53-.75-.8l-.25-.27V37.33Z"/></g><g id="Layer_5" data-name="Layer 5"><circle class="cls-8" cx="89.5" cy="62" r="2"/><line class="cls-9" x1="94.5" y1="62" x2="103.5" y2="62"/><circle class="cls-8" cx="89.5" cy="72" r="2"/><line class="cls-9" x1="94.5" y1="72" x2="103.5" y2="72"/><circle class="cls-8" cx="113.5" cy="62" r="2"/><line class="cls-9" x1="118.5" y1="62" x2="127.5" y2="62"/><circle class="cls-8" cx="113.5" cy="72" r="2"/><line class="cls-9" x1="118.5" y1="72" x2="127.5" y2="72"/><line class="cls-10" x1="90.5" y1="53" x2="101.5" y2="42"/><line class="cls-10" x1="101.5" y1="53" x2="90.5" y2="42"/><polyline class="cls-10" points="127.5 40.5 116 52 111.25 47.25"/></g></svg>